HIERARCHY
ROOT hip
{
  OFFSET 0 90.174 2.4664
  CHANNELS 6 Xposition Yposition Zposition Zrotation Xrotation Yrotation
  JOINT abdomen
  {
    OFFSET 0 -1.186 -1.5018
    CHANNELS 6 Xposition Yposition Zposition Zrotation Xrotation Yrotation
    JOINT abdomen2
    {
      OFFSET 0 9.964 0.2134
      CHANNELS 6 Xposition Yposition Zposition Zrotation Xrotation Yrotation
      JOINT chest
      {
        OFFSET 0 13.134 -3.2573
        CHANNELS 6 Xposition Yposition Zposition Zrotation Xrotation Yrotation
        JOINT neck
        {
          OFFSET 0 20.686 -1.6905
          CHANNELS 6 Xposition Yposition Zposition Zrotation Xrotation Yrotation
          JOINT head
          {
            OFFSET 0 7.238 -0.1237
            CHANNELS 6 Xposition Yposition Zposition Zrotation Xrotation Yrotation
            End Site
            {
              OFFSET 0 0 0
            }
          }
        }
        JOINT lCollar
        {
          OFFSET 1.7069 20.075 5.0056
          CHANNELS 6 Xposition Yposition Zposition Zrotation Xrotation Yrotation
          JOINT lShldr
          {
            OFFSET 13.6458 -0.047 -4.849
            CHANNELS 6 Xposition Yposition Zposition Zrotation Xrotation Yrotation
            JOINT lForeArm
            {
              OFFSET 28.3255 -0.9759 2.2888
              CHANNELS 6 Xposition Yposition Zposition Zrotation Xrotation Yrotation
              JOINT lHand
              {
                OFFSET 22.1583 -0.53 10.8316
                CHANNELS 6 Xposition Yposition Zposition Zrotation Xrotation Yrotation
                JOINT lThumb1
                {
                  OFFSET 0.786 0.112 2.5817
                  CHANNELS 6 Xposition Yposition Zposition Zrotation Xrotation Yrotation
                  JOINT lThumb2
                  {
                    OFFSET 0.3601 -0.878 4.2331
                    CHANNELS 6 Xposition Yposition Zposition Zrotation Xrotation Yrotation
                    JOINT lThumb2_End
                    {
                      OFFSET 1.8127 -1.216 2.2227
                      CHANNELS 6 Xposition Yposition Zposition Zrotation Xrotation Yrotation
                      End Site
                      {
                        OFFSET 0.0181 -0.0122 0.0222
                      }
                    }
                  }
                }
                JOINT lCarpal1
                {
                  OFFSET 0.9571 1.114 1.7695
                  CHANNELS 6 Xposition Yposition Zposition Zrotation Xrotation Yrotation
                  JOINT lIndex1
                  {
                    OFFSET 4.1246 0.487 4.1451
                    CHANNELS 6 Xposition Yposition Zposition Zrotation Xrotation Yrotation
                    JOINT lIndex2
                    {
                      OFFSET 3.4052 -1.454 2.7682
                      CHANNELS 6 Xposition Yposition Zposition Zrotation Xrotation Yrotation
                      JOINT lIndex2_End
                      {
                        OFFSET 1.4531 -1.795 1.2713
                        CHANNELS 6 Xposition Yposition Zposition Zrotation Xrotation Yrotation
                        End Site
                        {
                          OFFSET 0.0145 -0.0179 0.0127
                        }
                      }
                    }
                  }
                  JOINT lMid1
                  {
                    OFFSET 5.6954 0.21 2.1184
                    CHANNELS 6 Xposition Yposition Zposition Zrotation Xrotation Yrotation
                    JOINT lMid2
                    {
                      OFFSET 3.9766 -1.54 2.3863
                      CHANNELS 6 Xposition Yposition Zposition Zrotation Xrotation Yrotation
                      JOINT lMid2_End
                      {
                        OFFSET 1.4042 -1.926 1.125
                        CHANNELS 6 Xposition Yposition Zposition Zrotation Xrotation Yrotation
                        End Site
                        {
                          OFFSET 0.014 -0.0193 0.0113
                        }
                      }
                    }
                  }
                }
                JOINT lCarpal2
                {
                  OFFSET 2.0956 0.66 -0.3894
                  CHANNELS 6 Xposition Yposition Zposition Zrotation Xrotation Yrotation
                  JOINT lRing1
                  {
                    OFFSET 5.0395 -0.09 2.4971
                    CHANNELS 6 Xposition Yposition Zposition Zrotation Xrotation Yrotation
                    JOINT lRing2
                    {
                      OFFSET 3.7921 -1.552 1.4806
                      CHANNELS 6 Xposition Yposition Zposition Zrotation Xrotation Yrotation
                      JOINT lRing2_End
                      {
                        OFFSET 1.4655 -1.808 0.9609
                        CHANNELS 6 Xposition Yposition Zposition Zrotation Xrotation Yrotation
                        End Site
                        {
                          OFFSET 0.0147 -0.0181 0.0096
                        }
                      }
                    }
                  }
                  JOINT lPinky1
                  {
                    OFFSET 4.9141 -1.269 0.3591
                    CHANNELS 6 Xposition Yposition Zposition Zrotation Xrotation Yrotation
                    JOINT lPinky2
                    {
                      OFFSET 3.1477 -1.685 0.8462
                      CHANNELS 6 Xposition Yposition Zposition Zrotation Xrotation Yrotation
                      JOINT lPinky2_End
                      {
                        OFFSET 0.8055 -1.585 0.7955
                        CHANNELS 6 Xposition Yposition Zposition Zrotation Xrotation Yrotation
                        End Site
                        {
                          OFFSET 0.0081 -0.0158 0.008
                        }
                      }
                    }
                  }
                }
              }
            }
          }
        }
        JOINT rCollar
        {
          OFFSET -1.7069 20.075 5.0056
          CHANNELS 6 Xposition Yposition Zposition Zrotation Xrotation Yrotation
          JOINT rShldr
          {
            OFFSET -13.6458 -0.047 -4.849
            CHANNELS 6 Xposition Yposition Zposition Zrotation Xrotation Yrotation
            JOINT rForeArm
            {
              OFFSET -28.3255 -0.9759 2.2888
              CHANNELS 6 Xposition Yposition Zposition Zrotation Xrotation Yrotation
              JOINT rHand
              {
                OFFSET -22.1583 -0.53 10.8316
                CHANNELS 6 Xposition Yposition Zposition Zrotation Xrotation Yrotation
                JOINT rThumb1
                {
                  OFFSET -0.786 0.112 2.5817
                  CHANNELS 6 Xposition Yposition Zposition Zrotation Xrotation Yrotation
                  JOINT rThumb2
                  {
                    OFFSET -0.3601 -0.878 4.2331
                    CHANNELS 6 Xposition Yposition Zposition Zrotation Xrotation Yrotation
                    JOINT rThumb2_End
                    {
                      OFFSET -1.8127 -1.216 2.2227
                      CHANNELS 6 Xposition Yposition Zposition Zrotation Xrotation Yrotation
                      End Site
                      {
                        OFFSET -0.0181 -0.0122 0.0222
                      }
                    }
                  }
                }
                JOINT rCarpal1
                {
                  OFFSET -0.9571 1.114 1.7695
                  CHANNELS 6 Xposition Yposition Zposition Zrotation Xrotation Yrotation
                  JOINT rIndex1
                  {
                    OFFSET -4.1246 0.487 4.1451
                    CHANNELS 6 Xposition Yposition Zposition Zrotation Xrotation Yrotation
                    JOINT rIndex2
                    {
                      OFFSET -3.4052 -1.454 2.7682
                      CHANNELS 6 Xposition Yposition Zposition Zrotation Xrotation Yrotation
                      JOINT rIndex2_End
                      {
                        OFFSET -1.4531 -1.795 1.2713
                        CHANNELS 6 Xposition Yposition Zposition Zrotation Xrotation Yrotation
                        End Site
                        {
                          OFFSET -0.0145 -0.018 0.0127
                        }
                      }
                    }
                  }
                  JOINT rMid1
                  {
                    OFFSET -5.6954 0.21 2.1184
                    CHANNELS 6 Xposition Yposition Zposition Zrotation Xrotation Yrotation
                    JOINT rMid2
                    {
                      OFFSET -3.9766 -1.54 2.3863
                      CHANNELS 6 Xposition Yposition Zposition Zrotation Xrotation Yrotation
                      JOINT rMid2_End
                      {
                        OFFSET -1.4042 -1.926 1.125
                        CHANNELS 6 Xposition Yposition Zposition Zrotation Xrotation Yrotation
                        End Site
                        {
                          OFFSET -0.014 -0.0193 0.0113
                        }
                      }
                    }
                  }
                }
                JOINT rCarpal2
                {
                  OFFSET -2.0956 0.66 -0.3894
                  CHANNELS 6 Xposition Yposition Zposition Zrotation Xrotation Yrotation
                  JOINT rRing1
                  {
                    OFFSET -5.0395 -0.09 2.4971
                    CHANNELS 6 Xposition Yposition Zposition Zrotation Xrotation Yrotation
                    JOINT rRing2
                    {
                      OFFSET -3.7921 -1.552 1.4806
                      CHANNELS 6 Xposition Yposition Zposition Zrotation Xrotation Yrotation
                      JOINT rRing2_End
                      {
                        OFFSET -1.4655 -1.808 0.9609
                        CHANNELS 6 Xposition Yposition Zposition Zrotation Xrotation Yrotation
                        End Site
                        {
                          OFFSET -0.0147 -0.0181 0.0096
                        }
                      }
                    }
                  }
                  JOINT rPinky1
                  {
                    OFFSET -4.9141 -1.269 0.3592
                    CHANNELS 6 Xposition Yposition Zposition Zrotation Xrotation Yrotation
                    JOINT rPinky2
                    {
                      OFFSET -3.1477 -1.685 0.8462
                      CHANNELS 6 Xposition Yposition Zposition Zrotation Xrotation Yrotation
                      JOINT rPinky2_End
                      {
                        OFFSET -0.8055 -1.585 0.7955
                        CHANNELS 6 Xposition Yposition Zposition Zrotation Xrotation Yrotation
                        End Site
                        {
                          OFFSET -0.0081 -0.0158 0.008
                        }
                      }
                    }
                  }
                }
              }
            }
          }
        }
      }
    }
  }
  JOINT lThigh
  {
    OFFSET 8.367 -8.2066 0.5982
    CHANNELS 6 Xposition Yposition Zposition Zrotation Xrotation Yrotation
    JOINT lShin
    {
      OFFSET 2.1923 -43.463 -0.4932
      CHANNELS 6 Xposition Yposition Zposition Zrotation Xrotation Yrotation
      JOINT lFoot
      {
        OFFSET 0.7333 -45.8593 -2.6451
        CHANNELS 6 Xposition Yposition Zposition Zrotation Xrotation Yrotation
        End Site
        {
          OFFSET 2.6618 -4.2699 12.3931
        }
      }
    }
  }
  JOINT rThigh
  {
    OFFSET -8.367 -8.2066 0.5982
    CHANNELS 6 Xposition Yposition Zposition Zrotation Xrotation Yrotation
    JOINT rShin
    {
      OFFSET -2.1923 -43.463 -0.4931
      CHANNELS 6 Xposition Yposition Zposition Zrotation Xrotation Yrotation
      JOINT rFoot
      {
        OFFSET -0.7333 -45.8593 -2.6451
        CHANNELS 6 Xposition Yposition Zposition Zrotation Xrotation Yrotation
        End Site
        {
          OFFSET -2.6618 -4.2699 12.3931
        }
      }
    }
  }
}
MOTION
Frames:	4
Frame Time:	0.0333333
1.34293 2.15901 -8.81785 -180 -89.9981 -180 0 -1.186 -1.5018 -0.0976852 8.55889 -0.151898 2.22045e-016 9.964 0.2134 -0.175106 17.118 -0.293854 0 13.134 -3.2573 -0.175106 17.118 -0.293854 4.44089e-016 20.686 -1.6905 -5.32923 1.3335 -46.8889 3.55271e-015 7.238 -0.1237 0.240793 10.2935 8.78506 1.7069 20.075 5.0056 -7.6933 5.80824 12.9851 13.6458 -0.047 -4.849 -69.6295 4.02416 34.4961 28.3255 -0.9759 2.2888 33.4649 2.41388 -57.6324 22.1583 -0.53 10.8316 9.2678 22.3571 -10.7203 0.786 0.112 2.5817 -7.95139e-016 -2.5842e-015 3.18055e-015 0.3601 -0.878 4.2331 -3.70455e-006 -1.61801e-007 8.03954e-007 1.8127 -1.216 2.2227 -2.25509e-006 6.4383e-007 5.67778e-007 0.9571 1.114 1.7695 -7.95139e-016 -2.5842e-015 -3.18055e-015 4.1246 0.487 4.1451 -1.98785e-015 -3.77691e-015 1.90833e-014 3.4052 -1.454 2.7682 -3.70455e-006 -1.61801e-007 8.03954e-007 1.4531 -1.795 1.2713 -2.25509e-006 6.4383e-007 5.67778e-007 5.6954 0.21 2.1184 -1.98785e-015 -3.77691e-015 1.90833e-014 3.9766 -1.54 2.3863 -3.70455e-006 -1.61801e-007 8.03954e-007 1.4042 -1.926 1.125 -2.25509e-006 6.4383e-007 5.67778e-007 2.0956 0.66 -0.3894 -7.95139e-016 -2.5842e-015 -3.18055e-015 5.0395 -0.09 2.4971 -1.98785e-015 -3.77691e-015 1.90833e-014 3.7921 -1.552 1.4806 -3.70455e-006 -1.61801e-007 8.03954e-007 1.4655 -1.808 0.9609 -2.25509e-006 6.4383e-007 5.67778e-007 4.9141 -1.269 0.3591 -1.98785e-015 -3.77691e-015 1.90833e-014 3.1477 -1.685 0.8462 -3.70455e-006 -1.61801e-007 8.03954e-007 0.8055 -1.585 0.7955 -2.25509e-006 6.4383e-007 5.67778e-007 -1.7069 20.075 5.0056 6.47659 0.0381503 7.47894 -13.6458 -0.047 -4.849 56.3386 29.8241 21.0506 -28.3255 -0.9759 2.2888 39.2386 -6.6855 31.6162 -22.1583 -0.53 10.8316 -15.0714 -2.10606 -8.36529 -0.786 0.112 2.5817 -1.98626e-031 2.38542e-015 4.77083e-015 -0.3601 -0.878 4.2331 3.18055e-015 1.59028e-015 3.18055e-015 -1.8127 -1.216 2.2227 3.18055e-015 5.56597e-015 -0 -0.9571 1.114 1.7695 -6.62086e-032 7.95139e-016 4.77083e-015 -4.1246 0.487 4.1451 -4.41391e-032 1.59028e-015 1.59028e-015 -3.4052 -1.454 2.7682 6.36111e-015 4.77083e-015 -0 -1.4531 -1.795 1.2713 -3.18055e-015 6.36111e-015 4.77083e-015 -5.6954 0.21 2.1184 -4.41391e-032 1.59028e-015 1.59028e-015 -3.9766 -1.54 2.3863 6.36111e-015 4.77083e-015 -0 -1.4042 -1.926 1.125 -3.18055e-015 6.36111e-015 4.77083e-015 -2.0956 0.66 -0.3894 -6.62086e-032 7.95139e-016 4.77083e-015 -5.0395 -0.09 2.4971 -4.41391e-032 1.59028e-015 1.59028e-015 -3.7921 -1.552 1.4806 6.36111e-015 4.77083e-015 -0 -1.4655 -1.808 0.9609 -3.18055e-015 6.36111e-015 4.77083e-015 -4.9141 -1.269 0.3592 -4.41391e-032 1.59028e-015 1.59028e-015 -3.1477 -1.685 0.8462 6.36111e-015 4.77083e-015 -0 -0.8055 -1.585 0.7955 -3.18055e-015 6.36111e-015 4.77083e-015 8.367 -8.2066 0.5982 13.8789 -43.1353 -2.35939 2.1923 -43.463 -0.4932 -166.896 65.7438 173.379 0.7333 -45.8593 -2.6451 24.471 0.167789 2.90901 -8.367 -8.2066 0.5982 -45.1562 -44.6484 -16.3418 -2.1923 -43.463 -0.4931 169.628 79.7648 -174.373 -0.7333 -45.8593 -2.6451 -42.4315 40.8237 60.3888 
1.34387 2.1588 -8.8166 -180 -89.9981 -180 0 -1.186 -1.5018 -0.0933094 8.66146 -0.152485 -2.22045e-016 9.964 0.2134 -0.165883 17.3231 -0.295674 -2.22045e-016 13.134 -3.2573 -0.165883 17.3232 -0.295674 0 20.686 -1.6905 -4.91956 1.7539 -46.8962 -3.55271e-015 7.238 -0.1237 0.218771 9.72236 8.7992 1.7069 20.075 5.0056 -7.68401 5.45147 12.7463 13.6458 -0.047 -4.849 -69.6296 4.02414 34.4961 28.3255 -0.9759 2.2888 33.4649 2.41388 -57.6324 22.1583 -0.53 10.8316 9.30786 22.1509 -10.6626 0.786 0.112 2.5817 -3.97569e-016 -1.39149e-015 3.18055e-015 0.3601 -0.878 4.2331 1.59028e-015 -2.18663e-015 6.36111e-015 1.8127 -1.216 2.2227 -1.98785e-015 -6.55989e-015 6.36111e-015 0.9571 1.114 1.7695 -3.97569e-016 -1.78906e-015 3.18055e-015 4.1246 0.487 4.1451 -7.95139e-016 -2.5842e-015 1.90833e-014 3.4052 -1.454 2.7682 -1.98785e-015 -9.93923e-016 9.54166e-015 1.4531 -1.795 1.2713 3.97569e-016 6.95746e-015 -6.36111e-015 5.6954 0.21 2.1184 -7.95139e-016 -2.5842e-015 1.90833e-014 3.9766 -1.54 2.3863 -1.98785e-015 -9.93923e-016 9.54166e-015 1.4042 -1.926 1.125 3.97569e-016 6.95746e-015 -6.36111e-015 2.0956 0.66 -0.3894 -3.97569e-016 -1.78906e-015 3.18055e-015 5.0395 -0.09 2.4971 -7.95139e-016 -2.5842e-015 1.90833e-014 3.7921 -1.552 1.4806 -1.98785e-015 -9.93923e-016 9.54166e-015 1.4655 -1.808 0.9609 3.97569e-016 6.95746e-015 -6.36111e-015 4.9141 -1.269 0.3591 -7.95139e-016 -2.5842e-015 1.90833e-014 3.1477 -1.685 0.8462 -1.98785e-015 -9.93923e-016 9.54166e-015 0.8055 -1.585 0.7955 3.97569e-016 6.95746e-015 -6.36111e-015 -1.7069 20.075 5.0056 6.28429 -0.454081 7.50168 -13.6458 -0.047 -4.849 56.3386 29.8241 21.0506 -28.3255 -0.9759 2.2888 39.2604 -6.13039 32.5093 -22.1583 -0.53 10.8316 -15.9983 -2.39883 -8.52444 -0.786 0.112 2.5817 -6.36111e-015 -1.59028e-015 -4.77083e-015 -0.3601 -0.878 4.2331 -6.36111e-015 0 -1.59028e-015 -1.8127 -1.216 2.2227 -1.32417e-031 4.77083e-015 1.59028e-015 -0.9571 1.114 1.7695 -3.18055e-015 -2.38542e-015 -3.18055e-015 -4.1246 0.487 4.1451 3.18055e-015 -2.22639e-014 7.95139e-015 -3.4052 -1.454 2.7682 -6.36111e-015 0 1.59028e-015 -1.4531 -1.795 1.2713 -6.36111e-015 -7.95139e-016 -1.59028e-015 -5.6954 0.21 2.1184 3.18055e-015 -2.22639e-014 7.95139e-015 -3.9766 -1.54 2.3863 -6.36111e-015 0 1.59028e-015 -1.4042 -1.926 1.125 -6.36111e-015 -7.95139e-016 -1.59028e-015 -2.0956 0.66 -0.3894 -3.18055e-015 -2.38542e-015 -3.18055e-015 -5.0395 -0.09 2.4971 3.18055e-015 -2.22639e-014 7.95139e-015 -3.7921 -1.552 1.4806 -6.36111e-015 0 1.59028e-015 -1.4655 -1.808 0.9609 -6.36111e-015 -7.95139e-016 -1.59028e-015 -4.9141 -1.269 0.3592 3.18055e-015 -2.22639e-014 7.95139e-015 -3.1477 -1.685 0.8462 -6.36111e-015 0 1.59028e-015 -0.8055 -1.585 0.7955 -6.36111e-015 -7.95139e-016 -1.59028e-015 8.367 -8.2066 0.5982 13.3433 -43.1261 -2.90107 2.1923 -43.463 -0.4932 -166.898 65.744 173.392 0.7333 -45.8593 -2.6451 24.1254 0.309156 3.15634 -8.367 -8.2066 0.5982 -44.8003 -44.7144 -15.8995 -2.1923 -43.463 -0.4931 169.632 79.7641 -174.386 -0.7333 -45.8593 -2.6451 -42.0596 40.9717 60.1832 
1.34481 2.1586 -8.81534 -180 -89.9981 -180 0 -1.186 -1.5018 -0.0889267 8.76412 -0.15304 -2.22045e-016 9.964 0.2134 -0.156641 17.5285 -0.297448 0 13.134 -3.2573 -0.156641 17.5285 -0.297448 0 20.686 -1.6905 -4.5098 2.17453 -46.9064 0 7.238 -0.1237 0.196928 9.15105 8.81309 1.7069 20.075 5.0056 -7.67621 5.09459 12.5077 13.6458 -0.047 -4.849 -69.6295 4.02415 34.4961 28.3255 -0.9759 2.2888 33.4648 2.41389 -57.6324 22.1583 -0.53 10.8316 9.34805 21.9448 -10.6048 0.786 0.112 2.5817 -1.19271e-015 9.93923e-016 -6.36111e-015 0.3601 -0.878 4.2331 -1.98785e-015 2.18663e-015 3.18055e-015 1.8127 -1.216 2.2227 -1.19271e-015 2.78299e-015 -3.18055e-015 0.9571 1.114 1.7695 -1.19271e-015 -3.77691e-015 -3.18055e-015 4.1246 0.487 4.1451 -4.77083e-015 3.37934e-015 -0 3.4052 -1.454 2.7682 -1.19271e-015 7.55382e-015 -3.18055e-015 1.4531 -1.795 1.2713 1.54487e-031 2.78299e-015 -3.18055e-015 5.6954 0.21 2.1184 -4.77083e-015 3.37934e-015 -0 3.9766 -1.54 2.3863 -1.19271e-015 7.55382e-015 -3.18055e-015 1.4042 -1.926 1.125 1.54487e-031 2.78299e-015 -3.18055e-015 2.0956 0.66 -0.3894 -1.19271e-015 -3.77691e-015 -3.18055e-015 5.0395 -0.09 2.4971 -4.77083e-015 3.37934e-015 -0 3.7921 -1.552 1.4806 -1.19271e-015 7.55382e-015 -3.18055e-015 1.4655 -1.808 0.9609 1.54487e-031 2.78299e-015 -3.18055e-015 4.9141 -1.269 0.3591 -4.77083e-015 3.37934e-015 -0 3.1477 -1.685 0.8462 -1.19271e-015 7.55382e-015 -3.18055e-015 0.8055 -1.585 0.7955 1.54487e-031 2.78299e-015 -3.18055e-015 -1.7069 20.075 5.0056 6.09211 -0.946545 7.52277 -13.6458 -0.047 -4.849 56.3387 29.8241 21.0506 -28.3255 -0.9759 2.2888 39.2735 -5.57433 33.4024 -22.1583 -0.53 10.8316 -16.9272 -2.68926 -8.68856 -0.786 0.112 2.5817 -3.18055e-015 -7.95139e-016 -4.77083e-015 -0.3601 -0.878 4.2331 -3.18055e-015 -6.36111e-015 -1.59028e-015 -1.8127 -1.216 2.2227 3.18055e-015 -5.56597e-015 -1.59028e-015 -0.9571 1.114 1.7695 -3.18055e-015 -1.59028e-015 -4.77083e-015 -4.1246 0.487 4.1451 6.36111e-015 -2.94201e-014 3.18055e-015 -3.4052 -1.454 2.7682 -3.18055e-015 -8.74653e-015 -6.36111e-015 -1.4531 -1.795 1.2713 6.36111e-015 4.77083e-015 -1.59028e-015 -5.6954 0.21 2.1184 6.36111e-015 -2.94201e-014 3.18055e-015 -3.9766 -1.54 2.3863 -3.18055e-015 -8.74653e-015 -6.36111e-015 -1.4042 -1.926 1.125 6.36111e-015 4.77083e-015 -1.59028e-015 -2.0956 0.66 -0.3894 -3.18055e-015 -1.59028e-015 -4.77083e-015 -5.0395 -0.09 2.4971 6.36111e-015 -2.94201e-014 3.18055e-015 -3.7921 -1.552 1.4806 -3.18055e-015 -8.74653e-015 -6.36111e-015 -1.4655 -1.808 0.9609 6.36111e-015 4.77083e-015 -1.59028e-015 -4.9141 -1.269 0.3592 6.36111e-015 -2.94201e-014 3.18055e-015 -3.1477 -1.685 0.8462 -3.18055e-015 -8.74653e-015 -6.36111e-015 -0.8055 -1.585 0.7955 6.36111e-015 4.77083e-015 -1.59028e-015 8.367 -8.2066 0.5982 12.8075 -43.1137 -3.4429 2.1923 -43.463 -0.4932 -166.9 65.7435 173.406 0.7333 -45.8593 -2.6451 23.7792 0.449089 3.40462 -8.367 -8.2066 0.5982 -44.4413 -44.7797 -15.4546 -2.1923 -43.463 -0.4931 169.635 79.7624 -174.4 -0.7333 -45.8593 -2.6451 -41.686 41.1186 59.9758 
1.34575 2.15841 -8.81409 -180 -89.9981 -180 0 -1.186 -1.5018 -0.0845379 8.86692 -0.153561 0 9.964 0.2134 -0.147382 17.734 -0.299176 0 13.134 -3.2573 -0.147382 17.734 -0.299176 2.22045e-016 20.686 -1.6905 -4.09951 2.59388 -46.9199 7.10543e-015 7.238 -0.1237 0.175253 8.57958 8.82673 1.7069 20.075 5.0056 -7.66992 4.73765 12.2692 13.6458 -0.047 -4.849 -69.6295 4.02416 34.4961 28.3255 -0.9759 2.2888 33.4648 2.41389 -57.6324 22.1583 -0.53 10.8316 9.38843 21.7387 -10.5469 0.786 0.112 2.5817 2.25486e-006 -6.44761e-007 -5.67567e-007 0.3601 -0.878 4.2331 1.6101e-006 -2.89962e-006 -6.63455e-007 1.8127 -1.216 2.2227 3.70467e-006 1.60289e-007 -8.03407e-007 0.9571 1.114 1.7695 -2.38542e-015 3.77691e-015 3.18055e-015 4.1246 0.487 4.1451 2.25486e-006 -6.44761e-007 -5.67567e-007 3.4052 -1.454 2.7682 1.6101e-006 -2.89962e-006 -6.63455e-007 1.4531 -1.795 1.2713 3.70467e-006 1.60289e-007 -8.03407e-007 5.6954 0.21 2.1184 2.25486e-006 -6.44761e-007 -5.67567e-007 3.9766 -1.54 2.3863 1.6101e-006 -2.89962e-006 -6.63455e-007 1.4042 -1.926 1.125 3.70467e-006 1.60289e-007 -8.03407e-007 2.0956 0.66 -0.3894 -2.38542e-015 3.77691e-015 3.18055e-015 5.0395 -0.09 2.4971 2.25486e-006 -6.44761e-007 -5.67567e-007 3.7921 -1.552 1.4806 1.6101e-006 -2.89962e-006 -6.63455e-007 1.4655 -1.808 0.9609 3.70467e-006 1.60289e-007 -8.03407e-007 4.9141 -1.269 0.3591 2.25486e-006 -6.44761e-007 -5.67567e-007 3.1477 -1.685 0.8462 1.6101e-006 -2.89962e-006 -6.63455e-007 0.8055 -1.585 0.7955 3.70467e-006 1.60289e-007 -8.03407e-007 -1.7069 20.075 5.0056 5.90004 -1.43916 7.54221 -13.6458 -0.047 -4.849 56.3387 29.8241 21.0506 -28.3255 -0.9759 2.2888 39.2779 -5.01755 34.2955 -22.1583 -0.53 10.8316 -17.8579 -2.97725 -8.85751 -0.786 0.112 2.5817 3.18055e-015 -5.56597e-015 1.59028e-015 -0.3601 -0.878 4.2331 -3.08973e-031 5.56597e-015 3.18055e-015 -1.8127 -1.216 2.2227 6.62086e-032 -2.38542e-015 1.59028e-015 -0.9571 1.114 1.7695 3.18055e-015 -5.56597e-015 1.59028e-015 -4.1246 0.487 4.1451 -3.08973e-031 5.56597e-015 3.18055e-015 -3.4052 -1.454 2.7682 1.98626e-031 -2.38542e-015 4.77083e-015 -1.4531 -1.795 1.2713 -8.82781e-032 1.59028e-015 3.18055e-015 -5.6954 0.21 2.1184 -3.08973e-031 5.56597e-015 3.18055e-015 -3.9766 -1.54 2.3863 1.98626e-031 -2.38542e-015 4.77083e-015 -1.4042 -1.926 1.125 -8.82781e-032 1.59028e-015 3.18055e-015 -2.0956 0.66 -0.3894 3.18055e-015 -5.56597e-015 1.59028e-015 -5.0395 -0.09 2.4971 -3.08973e-031 5.56597e-015 3.18055e-015 -3.7921 -1.552 1.4806 1.98626e-031 -2.38542e-015 4.77083e-015 -1.4655 -1.808 0.9609 -8.82781e-032 1.59028e-015 3.18055e-015 -4.9141 -1.269 0.3592 -3.08973e-031 5.56597e-015 3.18055e-015 -3.1477 -1.685 0.8462 1.98626e-031 -2.38542e-015 4.77083e-015 -0.8055 -1.585 0.7955 -8.82781e-032 1.59028e-015 3.18055e-015 8.367 -8.2066 0.5982 12.2721 -43.0973 -3.98432 2.1923 -43.463 -0.4932 -166.902 65.7435 173.42 0.7333 -45.8593 -2.6451 23.4324 0.587677 3.65381 -8.367 -8.2066 0.5982 -44.0842 -44.8409 -15.0108 -2.1923 -43.463 -0.4931 169.64 79.7622 -174.412 -0.7333 -45.8593 -2.6451 -41.311 41.2646 59.7668 
